<mxfile host="app.diagrams.net" modified="2023-10-24T01:49:18.442Z" agent="Mozilla/5.0 (Windows NT 10.0; Win64; x64) AppleWebKit/537.36 (KHTML, like Gecko) Chrome/115.0.0.0 Safari/537.36 Edg/115.0.1901.200" version="22.0.6" etag="XOGjgklvGXGom_tDZxJ8" type="github">
  <diagram name="Page-1" id="mp0DKFSiyZH3X44mD3EK">
    <mxGraphModel>
      <root>
        <mxCell id="0" />
        <mxCell id="1" parent="0" />
      </root>
    </mxGraphModel>
  </diagram>
</mxfile>
